<?xml version="1.0" encoding="utf-8" ?>
<svg xmlns="http://www.w3.org/2000/svg" xmlns:xlink="http://www.w3.org/1999/xlink" width="512" height="512">
	<defs>
		<linearGradient id="gradient_0" gradientUnits="userSpaceOnUse" x1="391.22833" y1="540.12897" x2="232.2601" y2="260.84665">
			<stop offset="0" stop-color="#0A1B51"/>
			<stop offset="1" stop-color="#037EA5"/>
		</linearGradient>
	</defs>
	<path fill="url(#gradient_0)" d="M480.379 172.409L481.412 135.197C481.915 134.759 482.165 134.304 482.835 134.078L483.058 134.155C483.606 134.339 483.913 134.427 484.488 134.392L486.38 134.384C486.884 134.384 487.159 134.495 487.593 134.738C488.557 133.936 495.519 134.788 496.745 135.793C499.751 138.26 499.826 135.589 502.126 140.812C502.463 141.576 502.189 143.911 502.25 144.875L502.189 145.5C501.918 150.798 502.204 156.21 502.459 161.5L502.543 169.276C502.526 177.119 501.309 184.887 502.345 192.75L502.564 182.13L502.595 447.188C502.586 455.011 502.59 461.993 499.427 469.282C493.214 483.603 479.578 492.939 464.072 493.614L56.138 493.69C49.6583 493.688 43.3722 493.91 37.0995 491.956C21.7774 487.183 7.96697 469.911 9.77922 453.277L9.49185 429.379L10.3638 405.625C10.9255 405.584 11.413 405.528 11.8928 405.208L13.25 404.625C13.5008 404.356 13.6808 404.152 14.0156 403.986L14.25 403.877C16.3332 402.326 19.3364 400.389 22.0625 400.562L23.75 400.125C24.165 400.125 25.3312 399.937 25.7488 399.813L26.5625 399.562C27.162 399.486 27.2924 399.548 27.75 399.875L28.25 399.375C28.6874 398.947 28.8499 398.678 29.125 398.127L30 398.875L30.125 397.877L30.1275 380.375C30.1608 379.602 30.2407 378.928 30.2009 378.135L30.5266 377.87L30.5769 443.165C30.6564 458.595 32.6975 472.061 51.8012 472.16L448.684 472.129C462.267 472.122 478.239 473.308 480.229 455.158C480.614 451.642 480.401 447.926 480.397 444.383L480.379 172.409Z"/>
	<defs>
		<linearGradient id="gradient_1" gradientUnits="userSpaceOnUse" x1="341.23428" y1="332.20914" x2="51.420605" y2="-1.284444">
			<stop offset="0" stop-color="#007B97"/>
			<stop offset="1" stop-color="#1BFFFF"/>
		</linearGradient>
	</defs>
	<path fill="url(#gradient_1)" d="M9.81438 429.379L9.40816 257.534C9.36804 254.406 8.71763 251.341 8.67678 248.25L8.5868 152.266C8.57043 149.172 7.92985 146.155 7.89223 143.135L7.87327 61.7983C7.88105 57.9943 7.65607 54.0062 8.25599 50.2441C11.1675 31.9856 25.546 16.1427 44.5 14.7546C48.2007 14.4836 51.9614 14.6036 55.6718 14.5992L450.592 14.633C456.252 14.6334 462.408 14.1576 468 14.9773C484.409 17.3825 500.196 30.759 502.279 47.8201C502.774 51.8712 502.615 56.0182 502.611 60.0923L502.601 76.4272L502.573 182.13L502.345 192.75C501.309 184.887 502.526 177.119 502.543 169.276L502.459 161.5C502.204 156.21 501.918 150.798 502.189 145.5L502.25 144.875C502.189 143.911 502.463 141.576 502.126 140.812C499.826 135.589 499.751 138.26 496.745 135.793C495.519 134.788 488.557 133.936 487.593 134.738C487.159 134.495 486.884 134.384 486.38 134.384L484.488 134.392C483.913 134.427 483.606 134.339 483.058 134.155L482.835 134.078C482.165 134.304 481.915 134.759 481.412 135.197L480.94 172.409L480.423 126.26L452.338 126.227L43.0071 126.288C38.7802 126.293 34.2095 125.916 30.0424 126.428L30.5522 377.87L30.2009 378.135C30.2407 378.928 30.1608 379.602 30.1275 380.375L30.125 397.877L30 398.875L29.125 398.127C28.8499 398.678 28.6874 398.947 28.25 399.375L27.75 399.875C27.2924 399.548 27.162 399.486 26.5625 399.562L25.7488 399.813C25.3312 399.937 24.165 400.125 23.75 400.125L22.0625 400.562C19.3364 400.389 16.3332 402.326 14.25 403.877L14.0156 403.986C13.6808 404.152 13.5008 404.356 13.25 404.625L11.8928 405.208C11.413 405.528 10.9255 405.584 10.3638 405.625L9.81438 429.379ZM319.316 41.3183L263.253 41.375C256.77 41.3826 250.197 41.4605 243.868 43.0478C229.062 46.7611 215.242 61.9419 218.936 78C222.381 92.973 232.898 104.01 248.5 105.346L353.625 105.551L422.523 105.482C461.93 104.255 466.119 45.9496 425.676 41.4892C421.772 41.0587 417.559 41.3181 413.625 41.3164L319.316 41.3183ZM173.935 57.335C164.326 58.7659 159.783 67.5601 167.826 72.7839C170.507 74.5258 173.734 74.2838 176.777 74.293L187.061 74.1098C202.074 72.613 198.598 59.167 188.8 57.7474C183.869 57.0329 178.92 57.0568 173.935 57.335ZM124.126 56.8513C116.401 57.6245 109.514 59.8222 112.417 69.2919L112.508 69.603C114.285 75.2038 128.063 74.392 132.846 74.464C136.37 74.2482 139.447 74.0468 141.914 71.1735C151.445 60.0699 132.696 55.8556 124.126 56.8513Z"/>
	<path fill="white" d="M71.7596 57.1497C77.6379 57.086 85.4015 55.7359 90.125 60.0937C93.956 63.628 92.1225 68.6619 88.8347 71.8854C86.1849 74.4834 82.2647 74.0331 78.8418 73.9969L70.4308 73.76C67.0588 73.6965 64.1112 73.8558 61.3477 71.6654C58.0985 69.09 57.7407 63.0387 60.4817 60C63.2984 56.8774 67.9168 57.2567 71.7596 57.1497Z"/>
	<path fill="#009DB8" d="M254.911 57.8448L403.689 57.9206C409.891 57.9251 416.656 57.4372 422.795 58.2708C440.919 60.7315 440.506 84.5876 424.724 88.035C422.986 88.4145 421.133 88.3991 419.362 88.4748L253.5 88.6769C251.659 88.6935 249.501 88.9461 247.74 88.3777L247.375 88.2518C232.644 83.5725 231.387 60.1948 254.911 57.8448Z"/>
	<path fill="white" d="M452.338 126.235L480.423 126.26L480.38 172.409L480.397 444.383C480.401 447.926 480.614 451.642 480.229 455.158C478.239 473.308 462.267 472.122 448.684 472.129L51.8012 472.16C32.6975 472.061 30.6564 458.595 30.5719 443.165L30.5522 377.87L30.0424 126.428C34.2095 125.916 38.7802 126.293 43.0071 126.288L452.338 126.235Z"/>
	<defs>
		<linearGradient id="gradient_2" gradientUnits="userSpaceOnUse" x1="271.57755" y1="391.47275" x2="238.18874" y2="209.36594">
			<stop offset="0" stop-color="#092D5C"/>
			<stop offset="1" stop-color="#0074A1"/>
		</linearGradient>
	</defs>
	<path fill="url(#gradient_2)" d="M278.157 201.83C288.386 201.083 297.334 212.053 294.742 221.875L247.259 383C244.997 391.71 242.137 397.203 232.36 399.238C223.717 399.601 216.078 393.473 214.749 384.796C214.172 381.026 215.27 377.036 216.192 373.395L261.645 218.18C264.493 209.709 268.551 203.196 278.157 201.83Z"/>
	<path fill="#0D3B66" d="M321.078 233.819C328.086 233.053 334.279 238.822 339.815 242.306L394.605 275.819C404.13 281.669 422.458 288.812 419.385 302.908C417.689 310.691 409.758 313.882 403.622 317.528L338.768 357.724C333.981 360.675 328.777 364.358 323.105 365.155C311.959 366.721 303.605 350.188 310.303 340.859C312.124 338.323 315.053 336.505 317.642 334.846L361.256 308.756C366.328 305.664 369.064 302.833 367.661 296.438C366.539 291.327 352.91 284.974 348.75 282.521L315.683 262.482C311.598 259.703 307.929 256.722 306.991 251.561C305.413 242.885 312.969 235.144 321.078 233.819Z"/>
	<defs>
		<linearGradient id="gradient_3" gradientUnits="userSpaceOnUse" x1="205.34023" y1="357.31122" x2="138.6899" y2="259.81384">
			<stop offset="0" stop-color="#05457C"/>
			<stop offset="1" stop-color="#00B6BC"/>
		</linearGradient>
	</defs>
	<path fill="url(#gradient_3)" d="M155.005 346.26L99.4036 312.068C96.0939 309.597 93.0998 306.476 92.5106 302.203C90.6817 288.938 105.393 283.132 114.634 277.496L171.919 241.806C176.764 238.812 182.351 234.289 188.187 233.654C200.115 232.355 209.659 247.076 202.339 256.892C197.908 262.832 189.695 266.493 183.422 270.295L157.62 285.677C151.852 289.213 144.009 292.471 145.163 300.58L145.352 301.772C146.329 306.763 152.34 309.633 156.25 311.982L170.236 320.395L185.516 329.482C191.767 333.163 201.606 336.889 203.766 344.648C206.172 353.287 202.289 362.366 193.246 364.672C187.701 366.086 183.168 363.564 178.534 360.786L155.005 346.26Z"/>
</svg>
