<?xml version="1.0" encoding="utf-8" ?>
<svg xmlns="http://www.w3.org/2000/svg" xmlns:xlink="http://www.w3.org/1999/xlink" width="512" height="512">
	<path fill="#0D3B66" d="M280.845 487.28L228.7 487.464C218.629 487.152 209.769 481.322 203.692 473.542C194.06 461.211 194.546 445.704 196.298 430.941L131.45 397.997L123.88 403.329C112.144 410.22 100.431 413.271 87.0327 409.685C69.7176 405.049 57.051 388.876 54.2792 371.483C53.736 368.075 53.9991 364.413 54.006 360.967L54.0312 318.71C54.0078 303.838 52.558 295.52 68.8301 287.999C70.3251 287.308 71.9431 286.906 73.3739 286.103L73.7686 222.986C73.3303 222.657 72.9853 222.415 72.4531 222.258C65.1349 220.11 54.8875 213.37 54.0747 205.094C53.7678 201.969 54.0256 198.607 54.0275 195.457L54.0611 154.31C54.067 149.561 53.8447 144.673 54.1792 139.942C55.7256 118.063 71.9727 100.305 94 97.9243L95.9612 97.7558C108.967 97.1968 121.976 102.72 131.574 111.406L191.613 80.9843C194.275 79.7321 195.516 80.6284 195.449 77.3437L195.405 71.8059C195.379 66.5303 195.068 61.0344 195.647 55.7876C197.729 36.9083 212.446 24.5092 231.119 23.3544L283.125 23.3113C299.896 23.3922 313.972 38.3057 316.458 54.2454C316.991 57.663 316.818 61.1891 316.812 64.6383L316.766 79.473C317.743 80.2769 318.917 80.4863 320.039 81.0184L358.064 99.8979C365.192 103.523 372.865 106.927 379.461 111.449C381.181 110.793 383.138 108.854 384.708 107.792C391.202 103.397 398.803 99.4642 406.545 98.0818C431.415 93.6412 454.568 112.394 457.732 136.805C458.179 140.256 457.997 143.917 458.001 147.394L457.97 204.282C457.919 205.433 457.793 206.481 457.425 207.577L457.276 208C454.626 215.874 446.276 220.833 438.499 222.365L438.518 283.058C438.526 283.95 438.307 285.823 438.785 286.53C446.352 288.435 455.616 293.826 457.509 301.913L457.979 304.75C458.209 308.574 458.026 312.51 458.026 316.343L458.019 357.512C458.014 371.161 456.969 384.714 447.359 395.539C429.257 415.926 400.503 415.825 380.674 397.866L321.925 428.052C320.173 428.893 318.041 429.513 316.524 430.679L316.561 432C316.686 438.393 317.235 445.274 316.603 451.604C314.685 470.827 300.871 486.999 280.845 487.28ZM255.264 108.625L133.328 171.11C131.719 171.919 129.045 172.762 127.797 173.925L127.885 335.304C128.745 336.052 135.821 339.25 137.43 340.073L245.816 395.066C249.146 396.735 252.615 398.774 256.157 399.932C260.365 398.217 264.367 395.824 268.391 393.718L373.878 340.465C375.706 339.51 383.08 336.167 384.017 335.411L384.06 173.765C381.219 171.889 377.763 170.393 374.702 168.869L265.105 113.014C262.245 111.519 259.055 109.375 256.002 108.42L255.264 108.625Z"/>
	<path fill="#0D3B66" d="M255.802 352.354L171.606 309.499C171.02 299.843 171.42 289.979 171.419 280.298L171.426 210.001C171.418 206.904 171.762 203.229 171.036 200.22L255.929 156.492L340.891 199.673L340.977 309.698C340.114 310.583 338.204 310.872 337.046 311.38L289.035 335.617C277.955 341.086 266.431 346.064 255.802 352.354Z"/>
</svg>
