<?xml version="1.0" encoding="utf-8" ?>
<svg xmlns="http://www.w3.org/2000/svg" xmlns:xlink="http://www.w3.org/1999/xlink" width="200" height="200">
	<path fill="#45CAFF" transform="matrix(0.390625 0 0 0.390625 6.10352e-05 0)" d="M289.2 200.833C274.87 217.488 273.253 232.302 273.237 252.719L273.326 449.632C273.362 451.74 273.556 453.933 273.4 456.032C272.004 474.908 242.29 474.884 238.5 457.125C238.151 455.488 238.283 453.709 238.281 452.043L238.283 260.191C238.282 249.516 238.792 238.927 236.48 228.428C230.58 201.633 211.392 189.376 190.358 174.863L64.372 89.4094L46.25 78.0078C39.9672 73.9977 34.8452 69.1709 33.2542 61.5742C31.106 51.317 37.4012 40.981 47.8801 39.0031L50.7718 38.5966C53.1599 38.3369 55.729 38.5289 58.1437 38.5276L107.743 38.5617C108.623 38.5982 109.448 38.6744 110.25 39.0731L110.625 39.2715C114.807 41.4279 118.729 44.5366 122.648 47.146L253.131 135.462C253.628 135.794 255.638 137.366 256.099 137.409C256.302 137.428 276.018 123.671 278.102 122.252L380.805 53.0183C386.798 48.8848 392.771 44.2727 399.011 40.5306C404.213 37.412 410.687 38.5618 416.525 38.5567L454.342 38.5277C457.303 38.5291 460.463 38.2873 463.377 38.8272C479.682 41.8485 483.489 61.7501 472.688 72.7313C468.123 77.373 461.725 80.7274 456.25 84.2202L435.438 97.6995L315.539 179.625C306.089 186.326 296.945 192.124 289.2 200.833Z"/>
	<path fill="#45CAFF" transform="matrix(0.390625 0 0 0.390625 6.10352e-05 0)" d="M155.875 263.431L52.1846 263.409C34.0078 263.232 25.8203 253.189 26.164 235.697L76.1516 235.539C75.3631 235.256 74.6956 234.867 74.2 234.183C71.6083 230.607 58.5279 222.141 54.7341 219.78L40.0696 210.967C25.5444 201.64 25.8604 195.343 25.8662 178.591L25.8343 119.068C25.8288 114.733 25.3701 109.974 25.7888 105.695C30.2931 107.447 34.733 110.736 39 113.487L179.511 209.16C206.554 227.946 206.272 232.69 206.295 263.148C200.55 263.798 194.368 263.407 188.582 263.413L155.875 263.431Z"/>
	<path fill="#45CAFF" transform="matrix(0.390625 0 0 0.390625 6.10352e-05 0)" d="M356.375 263.437L305.343 263.484L305.395 250.441C305.493 226.673 315.396 221.943 333.536 209.267L477.723 110.721C480.294 108.955 482.76 107.096 485.759 106.125L486.282 181.557C486.264 201.572 482.746 205.38 465.022 214.717C458.775 218.008 441.047 228.256 436.848 234.16C436.578 234.54 436.366 234.803 435.988 235.087L485.983 235.533C485.926 238.698 486.321 242.921 485.398 245.954L485.302 246.25C480.443 261.719 468.032 263.401 454.66 263.421L356.375 263.437Z"/>
	<path fill="#45CAFF" transform="matrix(0.390625 0 0 0.390625 6.10352e-05 0)" d="M328.106 425.036L305.483 439.635L305.253 297.226L472.641 297.157L476.904 296.764C467.935 326.82 445.394 344.392 414.262 344.462L356.832 344.435C355.172 344.425 352.825 344.123 351.25 344.522L351.227 361.397C351.225 364.048 350.937 367.055 351.318 369.667L366.185 369.609C368.888 369.602 371.891 369.345 374.542 369.824C387.161 372.104 386.618 385.688 378.067 393.323C375.538 395.582 372.42 397.272 369.469 398.918L328.106 425.036Z"/>
	<path fill="#45CAFF" transform="matrix(0.390625 0 0 0.390625 6.10352e-05 0)" d="M183.405 424.9L144.898 400.053C137.997 395.543 127.426 391.473 127.264 381.716C127.068 369.863 138.136 369.581 146.518 369.612L160.108 369.675C160.523 367.351 160.208 364.472 160.211 362.093L160.228 344.495L99.8328 344.512C93.7487 344.502 88.1286 344.47 82.1638 343.104C61.2414 338.309 44.1808 322.085 36.9688 302.017C36.436 300.534 36.4204 299.016 35.5432 297.671L41.3921 297.279L199.821 297.307C201.938 297.33 204.157 297.266 206.235 297.698L206.909 439.939C205.343 439.257 203.741 438.048 202.247 437.159L183.405 424.9Z"/>
</svg>
