<?xml version="1.0" encoding="utf-8" ?>
<svg xmlns="http://www.w3.org/2000/svg" xmlns:xlink="http://www.w3.org/1999/xlink" width="512" height="512">
	<path fill="#FFF95B" d="M257.996 111.006C246.38 112.237 236.425 101.883 227.292 96.1207L210.811 85.9114C205.397 82.5723 199.053 79.7162 197.461 72.9037C195.326 63.7679 201.297 59.6009 208.441 55.7233L236.78 38.5671C242.12 35.3036 247.299 31.2362 253.504 29.7911C255.349 29.5521 257.24 29.5982 259.038 30.0942L259.5 30.2271C265.225 31.823 270.58 35.5393 275.575 38.7098L305.605 57.0886C309.401 59.3336 312.605 62.1417 313.665 66.6184C316.61 79.0479 303.335 83.3331 295.217 88.615L273.959 102.274C268.951 105.46 263.911 109.707 257.996 111.006Z"/>
	<path fill="#FFF95B" d="M134.365 204.033L106.783 186.652C84.7675 172.866 85.7965 173.523 85.7922 149.25L85.8221 103.512C85.8272 100.13 85.426 96.0902 86.153 92.8033L86.2559 92.375C88.009 84.8012 95.5121 80.4303 103.091 82.5637C106.913 83.6394 110.499 86.9038 113.771 89.125L240.145 170.766C255.173 180.971 261.338 177.501 275.704 166.981L393.18 91.3117C398.722 87.7527 404.179 82.8845 410.869 81.8202C425.747 81.0468 423.528 96.2671 423.537 105.845L423.548 154.458C423.537 171.51 422.715 175.507 406.804 185.754L324.158 237.922C316.796 242.698 309.085 246.916 301.941 252.027C280.746 267.192 265.086 291.534 259.03 316.858C257.634 322.696 257.404 328.735 256.422 334.648C254.477 326.321 252.683 317.909 250.051 309.766C237.745 271.688 217.384 256.345 185.383 236.257L134.365 204.033Z"/>
	<path fill="#FFF95B" d="M368.977 473.091C364.644 471.107 360.769 467.979 356.796 465.36L323.895 444.847C303.871 432.882 300.274 429.227 300.251 406.917L300.244 366.777C300.247 361.003 300.083 355.242 300.796 349.5C305.972 307.754 335.681 295.076 366.566 275.682L397.917 256.198C405.767 251.396 413.756 245.089 423.132 243.835C433.01 243.013 439.185 247.761 447.27 252.707L469.224 266.411C475.917 270.662 483.999 274.117 487.89 281.446C491.31 287.888 489.985 296.907 485.291 302.416C481.45 306.923 474.947 309.348 469.962 312.443L409.866 349.894C388.174 362.812 392.824 375.548 392.827 397.53L392.877 454.519C392.871 468.66 383.765 478.587 368.977 473.091Z"/>
	<path fill="#FFF95B" d="M144.883 471.824C134.132 477.703 121.32 473.737 118.494 461.206C117.99 458.969 118.242 456.463 118.252 454.171L118.362 380.536C118.648 364.979 116.735 360.479 102.581 351.163L39.6786 312.036C32.3464 307.519 23.3138 302.605 22.2818 293.034C20.9462 280.648 30.4796 274.296 39.6721 268.664L52.2978 260.893C62.4328 254.552 72.0758 246.191 84.3678 244.847C94.3853 243.891 101.94 250.071 109.875 255.118L160.584 286.535C187.084 303.106 202.95 314.199 209.15 346.474C210.501 353.507 210.092 360.807 210.093 367.94L210.074 410.443C210.068 413.941 210.288 417.635 209.679 421.089L209.381 422.786C207.054 433.218 198.409 438.453 189.99 443.586L144.883 471.824Z"/>
</svg>
