<?xml version="1.0" encoding="utf-8" ?>
<svg xmlns="http://www.w3.org/2000/svg" xmlns:xlink="http://www.w3.org/1999/xlink" width="200" height="201">
	<path fill="#07F49E" transform="matrix(0.390625 0 0 0.392578 6.10352e-05 0)" d="M258.059 161.961C251.282 162.226 245.319 160.891 239.783 156.817C226.964 147.383 227.985 139.682 227.993 125.867L228.003 68.4298C228.003 63.7182 227.538 58.47 228.176 53.8234C230.033 40.278 240.124 31.0973 253.605 29.3366C267.54 27.3158 281.658 38.6946 283.639 52.4099C284.257 56.6854 283.815 61.5091 283.817 65.8506L283.816 123.251C283.814 127.796 284.281 132.969 283.614 137.449C281.577 151.12 271.701 160.088 258.059 161.961Z"/>
	<path fill="#07F49E" transform="matrix(0.390625 0 0 0.392578 6.10352e-05 0)" d="M233.403 250.696C230.56 249.404 227.848 247.249 225.278 245.519L141.7 187.013C141.222 183.527 141.475 179.784 141.467 176.255L141.509 128.949C141.519 123.704 141.302 118.344 141.728 113.119C151.784 121.005 162.508 127.726 172.874 134.854L230.521 175.067C231.601 175.827 232.852 176.527 233.562 177.66L233.526 246.625C233.54 248.065 234.097 249.363 233.403 250.696Z"/>
	<path fill="#07F49E" transform="matrix(0.390625 0 0 0.392578 6.10352e-05 0)" d="M278.256 251.235C277.813 250.112 277.885 248.611 277.844 247.451L277.807 190.154C277.85 175.322 276.061 179.062 288.301 170.876L367.985 116.125L368.554 116.037C368.203 118.623 368.276 121.345 368.269 123.953L368.229 172.027C368.24 189.034 371.764 185.71 358.763 194.668L278.256 251.235Z"/>
	<path fill="#07F49E" transform="matrix(0.390625 0 0 0.392578 6.10352e-05 0)" d="M217.34 339.024L35.5764 208.28C14.1374 189.572 24.2161 156.457 51.8418 154.603C61.051 154.228 67.408 158.678 74.5087 163.712L128.327 202.757L228.161 273.669C233.997 278.174 233.466 275.989 233.49 284.197L233.613 349.645C231.762 349.236 229.694 347.662 228.13 346.613L217.34 339.024Z"/>
	<path fill="#07F49E" transform="matrix(0.390625 0 0 0.392578 6.10352e-05 0)" d="M296.062 337.803L282.532 347.242C281.168 348.102 279.453 348.404 278.212 349.27L277.73 278.172C281.478 274.757 285.92 271.99 290.039 269.039L419.706 176.974C430.885 168.9 443.957 156.083 458.263 154.852C475.993 153.907 490.863 170.383 488.143 188.101C486.127 201.237 481.55 205.795 471.512 212.858L403.688 260.571L296.062 337.803Z"/>
	<path fill="#07F49E" transform="matrix(0.390625 0 0 0.392578 6.10352e-05 0)" d="M225.089 414.804C215.012 423.805 201.537 425.901 189.561 418.926C184.335 415.882 179.667 411.641 174.686 408.174L45.2867 315.419C28.7116 303.796 24.5025 298.888 24.5969 279.312L24.784 226.496C28.0439 228.151 30.8827 230.411 33.7364 232.578L209.784 360.095C214.691 363.563 220.185 366.835 224.531 370.989C237.239 383.137 237.135 402.329 225.089 414.804Z"/>
	<path fill="#07F49E" transform="matrix(0.390625 0 0 0.392578 6.10352e-05 0)" d="M286.331 415.257L283.875 412.446C274.368 400.305 274.78 382.716 285.919 371.849C291.214 366.684 297.99 362.653 304.048 358.436L440.153 261.048L487.021 227.375L487.528 279.272C487.496 304.298 476.891 307.527 458.949 320.232L329.94 412.815C327.135 415.029 324.382 417.449 321.338 419.327C310.03 426.303 295.959 424.269 286.331 415.257Z"/>
</svg>
