<?xml version="1.0" encoding="utf-8" ?>
<svg xmlns="http://www.w3.org/2000/svg" xmlns:xlink="http://www.w3.org/1999/xlink" width="200" height="200">
	<path transform="scale(0.390625 0.390625)" d="M261.728 145.8L235.66 145.714L235.575 219.377C235.564 220.668 235.844 223.132 235.388 224.3C233.587 222.747 230.409 221.542 228.235 220.154L71.0652 120.585C74.4867 106.958 87.8354 75.7176 105.314 75.0179C107.939 74.9128 110.508 76.5238 112.696 77.7943L226.241 150.18C227.087 150.678 228.107 150.953 228.811 151.649L229.122 45.9699C229.342 31.8713 238.761 23.5596 252.434 22.868C264.235 23.0217 274.646 24.1504 280.542 35.8464C281.693 38.13 282.711 40.8683 282.837 43.4358L282.802 152.347L399.596 77.7529C401.114 76.8613 403.008 75.5997 404.75 75.3057C419.555 72.8078 431.824 96.3962 436.583 107.49C438.377 111.672 439.788 116.268 442.09 120.187L276.369 224.271L276.928 146.286C275.126 145.786 273.06 145.899 271.193 145.878L261.728 145.8Z"/>
	<path transform="scale(0.390625 0.390625)" d="M375.517 435.386L384.503 460.976C373.045 470.672 351.869 477.381 337.703 480.635C336.726 478.559 335.378 476.63 334.259 474.625L308.718 416.32L285.391 357.449C284.556 355.565 283.957 353.506 282.971 351.708C283.222 355.824 282.971 360.058 282.956 364.187L282.995 456.953C283.038 468.494 283.298 477.08 271.475 483.481C266.13 486.375 260.498 486.288 254.602 486.256C241.184 486.183 231.577 480.699 229.255 466.805C228.663 463.261 229.047 459.18 229.047 455.575L229.207 352.462C227.795 355.726 226.334 358.964 224.808 362.188L181.395 468.13C179.49 472.351 177.671 476.859 174.96 480.628C157.906 476.772 141.386 471.503 127.299 460.781L184.051 301.51L49.3214 360.011C36.6251 345.988 27.6161 330.393 25.4464 311.16C29.5913 308.576 34.0991 306.639 38.5 304.544L124.36 264.229L33.9896 212.698C31.4027 211.284 28.5429 209.441 25.6363 208.896L25.3293 208.364C25.5032 205.783 26.4867 202.679 27.0953 200.133C30.9148 184.155 38.7777 169.187 51.5435 158.65L61.8462 164.029L133.192 208.301L229.651 267.308C231.83 268.651 236.028 270.037 235.837 273.017L235.652 358.74C235.653 362.155 235.295 397.441 236.202 398.377C241.081 398.969 246.299 398.643 251.214 398.643L275.864 398.447C276.522 396.633 276.146 393.162 276.175 391.19L275.904 272.311C276.266 271.49 277.421 270.836 278.17 270.354L436.884 172.339C444.402 167.86 452.258 162.742 460.362 159.433C461.35 159.801 462.238 160.516 463.024 161.206C474.265 171.077 485.33 192.399 486.547 207.858C483.865 209.978 480.617 211.28 477.597 212.845L418.158 246.601C407.819 252.436 397.78 258.845 387.136 264.117C397.033 269.802 407.948 273.764 418.309 278.512L478.199 306.631C481.046 307.888 484.182 309.058 486.592 311.05C483.522 327.323 481.772 334.486 471.892 348.667C468.971 352.858 466.05 356.92 462.185 360.303L327.569 301.508L375.517 435.386Z"/>
</svg>
