<?xml version="1.0" encoding="utf-8" ?>
<svg xmlns="http://www.w3.org/2000/svg" xmlns:xlink="http://www.w3.org/1999/xlink" width="200" height="200">
	<path fill="#FAF0CA" transform="scale(0.390625 0.390625)" d="M255.886 199.695C254.732 198.664 253.687 197.196 252.704 195.997C239.832 180.289 232.064 160.578 230.962 140.292L230.847 86.1474C230.84 79.7307 231.101 73.1714 230.677 66.7714L257.076 49.5776L278.648 64.7699C279.935 65.6221 281.424 66.3239 282.425 67.5063L282.334 116.446C282.337 126.472 282.806 136.698 281.63 146.662C279.347 165.994 269.219 185.843 255.886 199.695Z"/>
	<path fill="#FAF0CA" transform="scale(0.390625 0.390625)" d="M457.304 424.906L449.886 432.341C425.667 453.636 403.421 459.47 372.592 459.486L140.678 459.483C134.364 459.481 127.933 459.725 121.634 459.264C70.0892 455.491 31.5658 411.185 27.6572 360.859C27.2261 355.308 27.4957 349.571 27.492 344.001L27.4828 284.968C27.4838 279.646 27.2111 274.146 27.663 268.851L71.9547 268.887C79.2086 268.889 86.6776 268.546 93.8959 269.194C151.583 274.372 207.127 323.629 207.508 383.497C202.592 384.257 197.025 383.772 192.045 383.778L162.303 383.845C159.83 383.855 160.289 383.654 159.618 381.423C150.679 351.683 127.067 326.08 95.4282 321.167C89.9266 320.313 84.2256 320.227 78.6721 320.256C78.4024 320.904 78.5104 321.669 78.509 322.366L78.4971 349.652C78.4985 354.223 78.4012 358.743 79.0519 363.283C82.3482 386.283 101.167 403.64 123.383 408.19C128.304 409.197 133.684 408.883 138.701 408.895L230.667 408.853C230.929 407.275 230.785 405.468 230.793 403.859L230.077 357.75C227.162 315.721 203.485 275.933 170.585 250.373C160.967 242.9 150.582 236.536 140.367 229.932L79.0331 190.548C74.6422 187.655 70.0318 184.789 66.0285 181.371C69.5909 178.375 74.1725 176.091 78.1139 173.58L97.1703 160.913C101.629 157.959 106.418 155.162 110.577 151.806L158.92 181.373C159.837 181.93 161.343 182.399 162.027 183.169L162.378 127.061C162.382 123.95 162.271 120.805 162.707 117.719L198.533 94.375L199.375 94.2092C200.707 94.7975 211.399 100.122 211.801 101.336C211.925 101.709 211.859 102.604 211.874 103.026L212.071 170.761C213.369 199.777 223.191 225.394 239.746 248.898C244.598 255.786 250.25 261.929 255.361 268.592C257.529 265.407 260.391 262.515 262.875 259.567L275.81 243.151C290.736 222.547 299.317 197.232 300.84 171.89C301.364 163.187 300.956 154.22 300.961 145.491L300.971 116.812C300.971 111.936 300.49 106.554 301.243 101.75C305.018 98.8994 311.925 96.0968 316.268 94.3759C323.328 97.7223 329.943 103.05 336.482 107.342L346.989 114.216C348.425 115.178 350.004 116.017 351.317 117.13L351.332 182.361C352.418 181.489 353.618 181.065 354.776 180.349L362.891 175.241C375.644 167.318 388.857 160.125 401.035 151.313L439.971 177.35C442.252 178.82 444.523 180.169 446.545 181.998C438.246 188.209 429.177 193.513 420.431 199.073L359.437 237.57C346.35 246.212 333.55 254.721 322.528 266.004C298.207 290.9 282.683 324.807 279.814 359.5C279.274 366.03 279.523 372.69 279.528 379.241L279.62 408.88L374.772 408.913C378.63 408.912 382.877 409.221 386.681 408.647C407.1 405.564 425.191 390.269 431.487 370.595C434.211 362.084 434.196 353.974 434.207 345.133L434.219 320.844C431.625 319.98 418.173 320.945 415.483 321.316C390.719 324.734 367.587 344.115 356.981 366.136C354.216 371.878 352.888 378.047 350.353 383.788L310.532 383.742C308.255 383.727 305.553 383.941 303.375 383.206C300.433 380.064 304.45 365.723 305.442 362.115C319.478 311.089 362.863 275.051 415.453 269.381C424.02 268.457 432.86 268.911 441.479 268.91L484.985 268.927L484.962 347.68C484.935 377.367 477.66 402.128 457.304 424.906Z"/>
</svg>
