<?xml version="1.0" encoding="utf-8" ?>
<svg xmlns="http://www.w3.org/2000/svg" xmlns:xlink="http://www.w3.org/1999/xlink" width="200" height="200">
	<path fill="#F89B29" transform="matrix(0.390625 0 0 0.390625 6.10352e-05 0)" d="M282.486 477.462C264.291 493.031 234.967 485.061 229.598 460.625C228.748 456.76 228.967 452.894 228.98 448.967L229.072 383.737C227.761 383.479 226.234 383.635 224.896 383.635L198.72 383.624C168.572 383.589 159.185 378.083 139.387 357.612L44.8 263.658C41.5071 260.449 38.2626 256.962 34.7178 254.043L35.5 252.979C37.4869 251.493 39.1914 249.651 40.9421 247.9L78.3657 210.387C79.2978 209.354 80.2228 208.084 81.3169 207.244L194.581 319.383C195.637 320.326 196.797 320.1 198.125 320.116L227.597 320.192L227.65 296.013C227.402 293.927 222.546 289.316 221.127 287.798L125.725 191.854C121.043 187.191 116.425 182.441 111.339 178.211L157.256 133.381L220.778 196.151C223.215 198.556 226.774 201.47 228.676 204.204L228.487 24.0444L293.091 24.2658L293.079 203.548C294.215 201.739 297.78 198.746 299.498 197.094L365.085 132.532C366.648 133.589 368.172 135.528 369.499 136.893L406.499 174.391C407.548 175.501 408.493 176.602 409.314 177.893C405.518 182.765 400.744 186.926 396.375 191.275L309.52 277.541L294.97 291.222C292.435 293.809 293.529 298.577 293.52 301.918L293.493 320.101L325.966 320.17C327.422 319.234 330.05 315.603 331.467 314.168L438.966 207.221L485.34 253.23C483.585 255.575 481.257 257.648 479.176 259.705L392.624 346.171C372.948 365.88 359.031 383.603 329.335 383.635L293.035 383.5L293.148 455.367C292.734 463.898 288.731 471.731 282.486 477.462Z"/>
</svg>
