<svg width="200" height="200" viewBox="0 0 200 200" fill="none" xmlns="http://www.w3.org/2000/svg">
<path d="M102.309 190.697C95.8299 191.23 92.2654 189.793 86.8635 186.717L61.8178 173.003L23.4422 152.392C12.7634 146.794 9.37758 141.344 9.375 129.779L9.38387 67.7721C9.40348 54.8717 14.7977 50.8631 25.665 45.1698L81.3936 15.4988C87.2654 12.3165 90.5248 9.62952 97.4166 9.00195C104.992 8.86343 107.15 9.47913 114.165 13.1884L169.962 43.0147C181.807 49.5241 190.384 52.3733 190.4 67.6885L190.409 130.889C190.409 132.401 190.506 133.997 190.311 135.497C189.142 144.448 183.76 148.64 176.472 152.292L119.874 182.597C114.306 185.656 108.724 189.736 102.309 190.697ZM99.7639 28.3467L51.3123 53.9674L30.3134 65.4225C29.8885 65.6284 29.4978 65.676 29.1126 65.9721L29.1473 126.225C29.1495 128.34 28.9298 130.726 29.3057 132.804L29.4048 132.836C30.5752 133.24 31.7221 133.989 32.8036 134.594L84.6459 162.462C89.6846 165.13 94.8717 167.621 99.708 170.653L141.802 148.206L167.187 134.469C168.004 134.026 170.034 133.14 170.599 132.69L170.624 66.067C169.913 65.5334 167.487 64.4284 166.555 63.9424L107.054 31.7837C105.84 31.1492 100.824 28.07 99.7639 28.3467Z" fill="white"/>
<path d="M71.1631 148.794C67.0725 146.413 63.0975 143.88 59.5987 140.666C36.4102 119.365 35.8961 79.715 58.8994 57.9982C66.8627 50.4799 74.4397 48.2217 83.6358 43.1904L83.8635 63.2865C83.8561 64.7299 83.5971 64.3607 82.233 65.0775C78.4709 67.0549 74.9951 69.335 72.0397 72.4201C56.3565 88.7932 57.392 115.412 76.1885 129.174C77.674 130.262 79.235 131.263 80.8244 132.192L82.7123 133.263C83.1264 133.485 83.5061 133.569 83.8549 133.904L83.8615 155.365L71.1631 148.794Z" fill="white"/>
<path d="M129.076 148.404L116.059 154.787C116.175 154.034 116.138 153.229 116.143 152.468L116.153 135.71C116.16 133.628 115.639 133.876 117.274 133.013L120.117 131.406C145.994 115.773 143.991 79.1343 117.384 64.8519C116.412 64.3296 116.18 64.5272 116.16 63.396L116.165 43.6479C120.944 45.2433 128.97 49.2526 132.89 51.9163C145.526 60.5026 154.711 74.1636 157.153 89.3218L157.644 92.6737C158.124 95.1003 158.011 100.35 157.853 102.924C156.648 122.471 145.801 138.813 129.076 148.404Z" fill="white"/>
<path fill-rule="evenodd" clip-rule="evenodd" d="M123.872 104.1C127.453 101.727 127.453 96.4698 123.872 94.0969L102.899 80.2007C100.89 78.8696 98.2794 78.8696 96.2706 80.2007L75.2976 94.0969C71.7163 96.4698 71.7163 101.727 75.2976 104.1L96.2706 117.997C98.2794 119.328 100.89 119.328 102.899 117.997L123.872 104.1ZM102.835 84.9656C100.855 83.6998 98.3185 83.7063 96.3451 84.982L82.2573 94.0901C78.6126 96.4464 78.598 101.773 82.2297 104.15L96.3178 113.367C98.3039 114.667 100.87 114.673 102.862 113.384L117.108 104.166C120.774 101.794 120.76 96.4257 117.081 94.0737L102.835 84.9656Z" fill="white"/>
<circle cx="99.7799" cy="99.8799" r="5.85938" fill="white"/>
</svg>
